# xmcd CD database file
#
# Track frame offsets:
#	150
#	14108
#	28511
#	44172
#	60105
#	75902
#	86415
#	102680
#	119938
#	135120
#	152763
#
# Disc length: 2214 seconds
#
# Revision: 0
# Processed by: cddbd v1.5.2PL0 Copyright (c) Steve Scherf et al.
# Submitted via: CDex 1.70beta2
#
DISCID=8908a40b
DTITLE=Britany Reilly Band - Honky Tonk Home
DYEAR=2010
DGENRE=Country
TTITLE0=Ramblin Gal
TTITLE1=Bar Room Blues
TTITLE2=Jamaica
TTITLE3=Places I Call Home
TTITLE4=Goin' Out Tonight
TTITLE5=Leavin' You Dear
TTITLE6=Small Town Summer Night
TTITLE7=Grandpa's Eyes
TTITLE8=Honky Tonk Home
TTITLE9=Ghosts of The Opry
TTITLE10=Gotta Get a Break
EXTD=YEAR: 2010
EXTT0=
EXTT1=
EXTT2=
EXTT3=
EXTT4=
EXTT5=
EXTT6=
EXTT7=
EXTT8=
EXTT9=
EXTT10=
PLAYORDER=
